<?xml version="1.0" encoding="UTF-8"?>
<svg width="18px" height="18px" viewBox="0 0 18 18" version="1.1" xmlns="http://www.w3.org/2000/svg" xmlns:xlink="http://www.w3.org/1999/xlink">
    <!-- Generator: sketchtool 60 (101010) - https://sketch.com -->
    <title>806C5BE4-CBAB-420E-B80F-21C0F4ABC824</title>
    <desc>Created with sketchtool.</desc>
    <g id="COM-HP" stroke="none" stroke-width="1" fill="none" fill-rule="evenodd">
        <g id="Dtp-HP-1440-pop-8" transform="translate(-588.000000, -255.000000)" fill="#1877F2">
            <g id="login-copy" transform="translate(500.000000, 118.000000)">
                <path d="M106,145.799394 C106,141.156851 101.970566,137.393333 97,137.393333 C92.0294336,137.393333 88,141.156851 88,145.799394 C88,149.995101 91.2911699,153.472715 95.59375,154.103333 L95.59375,148.22927 L93.3085938,148.22927 L93.3085938,145.799394 L95.59375,145.799394 L95.59375,143.947433 C95.59375,141.840665 96.9373867,140.676951 98.9931836,140.676951 C99.9778574,140.676951 101.007812,140.841131 101.007812,140.841131 L101.007812,142.90981 L99.8729336,142.90981 C98.7549121,142.90981 98.40625,143.557783 98.40625,144.222551 L98.40625,145.799394 L100.902344,145.799394 L100.50332,148.22927 L98.40625,148.22927 L98.40625,154.103333 C102.70883,153.472715 106,149.995101 106,145.799394" id="Fill-1"></path>
            </g>
        </g>
    </g>
</svg>